<svg
    xmlns="http://www.w3.org/2000/svg"
    aria-hidden="true"
    role="img"
    width="1em"
    height="1em"
    viewBox="0 0 256 256"
  >
    <rect x="0" y="0" width="256" height="256" fill="none" stroke="none" />
    <path
      fill="currentColor"
      d="M148 92a8 8 0 1 1 8 8a8 8 0 0 1-8-8Zm-48-8a8 8 0 1 0 8 8a8 8 0 0 0-8-8Zm148 44a4 4 0 0 1-4 4h-32v12a83.6 83.6 0 0 1-4 25.6l25.9 14.9a4 4 0 0 1-2 7.5a4.9 4.9 0 0 1-2-.5l-24.7-14.3a84.1 84.1 0 0 1-154.4 0l-24.7 14.3a4.9 4.9 0 0 1-2 .5a4 4 0 0 1-2-7.5L48 169.6a83.6 83.6 0 0 1-4-25.6v-12H12a4 4 0 0 1 0-8h32v-12a83.6 83.6 0 0 1 4-25.6L22.1 71.5a4 4 0 0 1 4-7l24.7 14.3a84.1 84.1 0 0 1 154.4 0l24.7-14.3a4 4 0 1 1 4 7L208 86.4a83.6 83.6 0 0 1 4 25.6v12h32a4 4 0 0 1 4 4Zm-196-4h152v-12a76 76 0 0 0-152 0Zm72 95.9V132H52v12a76.1 76.1 0 0 0 72 75.9Zm80-87.9h-72v87.9a76.1 76.1 0 0 0 72-75.9Z"
    />
  </svg>