<svg
    xmlns="http://www.w3.org/2000/svg"
    xmlns:xlink="http://www.w3.org/1999/xlink"
    aria-hidden="true"
    role="img"
    width="1em"
    height="1em" 
    preserveAspectRatio="xMidYMid meet"
    viewBox="0 0 1024 1024"
  >
    <rect x="0" y="0" width="1024" height="1024" fill="none" stroke="none" />
    <path
      fill="currentColor"
      d="M128 384v512h768V192H768v32a32 32 0 1 1-64 0v-32H320v32a32 32 0 0 1-64 0v-32H128v128h768v64H128zm192-256h384V96a32 32 0 1 1 64 0v32h160a32 32 0 0 1 32 32v768a32 32 0 0 1-32 32H96a32 32 0 0 1-32-32V160a32 32 0 0 1 32-32h160V96a32 32 0 0 1 64 0v32zm-32 384h64a32 32 0 0 1 0 64h-64a32 32 0 0 1 0-64zm0 192h64a32 32 0 1 1 0 64h-64a32 32 0 1 1 0-64zm192-192h64a32 32 0 0 1 0 64h-64a32 32 0 0 1 0-64zm0 192h64a32 32 0 1 1 0 64h-64a32 32 0 1 1 0-64zm192-192h64a32 32 0 1 1 0 64h-64a32 32 0 1 1 0-64zm0 192h64a32 32 0 1 1 0 64h-64a32 32 0 1 1 0-64z"
    />
  </svg>