<svg
    xmlns="http://www.w3.org/2000/svg"
    xmlns:xlink="http://www.w3.org/1999/xlink"
    aria-hidden="true"
    role="img"
    width="1em"
    height="1em"
    preserveAspectRatio="xMidYMid meet"
    viewBox="0 0 1024 1024"
  >
    <rect x="0" y="0" width="1024" height="1024" fill="none" stroke="none" />
    <path
      fill="currentColor"
      d="M512 896a384 384 0 1 0 0-768a384 384 0 0 0 0 768zm0 64a448 448 0 1 1 0-896a448 448 0 0 1 0 896z"
    />
    <path
      fill="currentColor"
      d="M480 256a32 32 0 0 1 32 32v256a32 32 0 0 1-64 0V288a32 32 0 0 1 32-32z"
    />
    <path
      fill="currentColor"
      d="M480 512h256q32 0 32 32t-32 32H480q-32 0-32-32t32-32z"
    />
  </svg>