<svg
    class="genFormIcon genFormIcon-defaults"
    xmlns="http://www.w3.org/2000/svg"
    aria-hidden="true"
    role="img"
    width="1em"
    height="1em"
    preserveAspectRatio="xMidYMid meet"
    viewBox="0 0 48 48"
  >
    <rect x="0" y="0" width="48" height="48" fill="none" stroke="none" />
    <g fill="none">
      <path
        fill-rule="evenodd"
        clip-rule="evenodd"
        d="M10 10a2 2 0 0 1 2-2h18a2 2 0 0 1 2 2v14.055a8.948 8.948 0 0 1 2 .457V10a4 4 0 0 0-4-4H12a4 4 0 0 0-4 4v24a4 4 0 0 0 4 4h11.515a8.968 8.968 0 0 1-1.003-2H12a2 2 0 0 1-2-2V10z"
        fill="currentColor"
      />
      <path
        fill-rule="evenodd"
        clip-rule="evenodd"
        d="M12 14a1 1 0 0 1 1-1h16a1 1 0 1 1 0 2H13a1 1 0 0 1-1-1zm0 5a1 1 0 0 1 1-1h16a1 1 0 1 1 0 2H13a1 1 0 0 1-1-1zm1 4a1 1 0 1 0 0 2h8a1 1 0 1 0 0-2h-8zm-1 6a1 1 0 0 1 1-1h5a1 1 0 1 1 0 2h-5a1 1 0 0 1-1-1z"
        fill="currentColor"
      />
      <path
        fill-rule="evenodd"
        clip-rule="evenodd"
        d="M31 40a7 7 0 1 0 0-14a7 7 0 0 0 0 14zm0 2a9 9 0 1 0 0-18a9 9 0 0 0 0 18z"
        fill="currentColor"
      />
      <path
        fill-rule="evenodd"
        clip-rule="evenodd"
        d="M34.997 29.028a1 1 0 0 0-1.414 0l-.79.79l1.413 1.415l.791-.791a1 1 0 0 0 0-1.414zM33.5 31.94l-1.414-1.414l-5.069 5.069v1.414h1.414l5.07-5.069z"
        fill="currentColor"
      />
    </g>
  </svg>