  <svg
    xmlns="http://www.w3.org/2000/svg"
    aria-hidden="true"
    role="img"
    width="1em"
    height="1em"
    preserveAspectRatio="xMidYMid meet"
    viewBox="0 0 20 20"
  >
    <rect x="0" y="0" width="20" height="20" fill="none" stroke="none" />
    <g fill="none">
      <path
        d="M2.5 5a.5.5 0 0 0 0 1h15a.5.5 0 0 0 0-1h-15zm0 3a.5.5 0 0 0 0 1h15a.5.5 0 0 0 0-1h-15zM2 11.5a.5.5 0 0 1 .5-.5h15a.5.5 0 0 1 0 1h-15a.5.5 0 0 1-.5-.5zm.5 2.5a.5.5 0 0 0 0 1h10a.5.5 0 0 0 0-1h-10z"
        fill="currentColor"
      />
    </g>
  </svg>