<svg
    class="genFormIcon genFormIcon-disabled"
    xmlns="http://www.w3.org/2000/svg"
    aria-hidden="true"
    role="img"
    width="1em"
    height="1em"
    preserveAspectRatio="xMidYMid meet"
    viewBox="0 0 24 24"
  >
    <rect x="0" y="0" width="24" height="24" fill="none" stroke="none" />
    <path
      opacity=".3"
      d="M5 5v14h14V5H5zm12 10.59L15.59 17L12 13.41L8.41 17L7 15.59L10.59 12L7 8.41L8.41 7L12 10.59L15.59 7L17 8.41L13.41 12L17 15.59z"
      fill="currentColor"
    />
    <path
      d="M19 19H5V5h14v14zM3 3v18h18V3H3zm14 12.59L15.59 17L12 13.41L8.41 17L7 15.59L10.59 12L7 8.41L8.41 7L12 10.59L15.59 7L17 8.41L13.41 12L17 15.59z"
      fill="currentColor"
    />
  </svg>