<svg
    xmlns="http://www.w3.org/2000/svg"
    width="1em"
    height="1em"
    preserveAspectRatio="xMidYMid meet"
    viewBox="0 0 256 256"
  >
    <rect x="0" y="0" width="256" height="256" fill="none" stroke="none" />
    <path
      fill="currentColor"
      d="M216 50H40a6 6 0 0 0-6 6v152a14 14 0 0 0 14 14h40a14 14 0 0 0 14-14v-50h52v18a14 14 0 0 0 14 14h40a14 14 0 0 0 14-14V56a6 6 0 0 0-6-6Zm-6 64h-44V62h44ZM90 62v52H46V62Zm0 146a2 2 0 0 1-2 2H48a2 2 0 0 1-2-2v-82h44Zm12-62V62h52v84Zm106 32h-40a2 2 0 0 1-2-2v-50h44v50a2 2 0 0 1-2 2Z"
    />
  </svg>