<svg
    xmlns="http://www.w3.org/2000/svg"
    aria-hidden="true"
    role="img"
    width="1em"
    height="1em"
    preserveAspectRatio="xMidYMid meet"
    viewBox="0 0 16 16"
  >
    <rect x="0" y="0" width="16" height="16" fill="none" stroke="none" />
    <g fill="currentColor">
      <path
        d="M7 2.5a.5.5 0 0 1 .5-.5h7a.5.5 0 0 1 .5.5v1a.5.5 0 0 1-.5.5h-7a.5.5 0 0 1-.5-.5v-1zM0 12a3 3 0 1 1 6 0a3 3 0 0 1-6 0zm7-1.5a.5.5 0 0 1 .5-.5h7a.5.5 0 0 1 .5.5v1a.5.5 0 0 1-.5.5h-7a.5.5 0 0 1-.5-.5v-1zm0-5a.5.5 0 0 1 .5-.5h5a.5.5 0 0 1 0 1h-5a.5.5 0 0 1-.5-.5zm0 8a.5.5 0 0 1 .5-.5h5a.5.5 0 0 1 0 1h-5a.5.5 0 0 1-.5-.5zM3 1a3 3 0 1 0 0 6a3 3 0 0 0 0-6zm0 4.5a1.5 1.5 0 1 1 0-3a1.5 1.5 0 0 1 0 3z"
      />
    </g>
  </svg>