<svg
    xmlns="http://www.w3.org/2000/svg"
    width="1em"
    height="1em"
    preserveAspectRatio="xMidYMid meet"
    viewBox="0 0 256 256"
  >
    <rect x="0" y="0" width="256" height="256" fill="none" stroke="none" />
    <path
      fill="currentColor"
      d="M176 88v80a8 8 0 0 1-8 8H88a8 8 0 0 1-8-8V88a8 8 0 0 1 8-8h80a8 8 0 0 1 8 8Z"
      opacity=".2"
    />
    <path
      fill="currentColor"
      d="M224 40v40a8 8 0 0 1-16 0V48h-32a8 8 0 0 1 0-16h40a8 8 0 0 1 8 8ZM80 208H48v-32a8 8 0 0 0-16 0v40a8 8 0 0 0 8 8h40a8 8 0 0 0 0-16Zm136-40a8 8 0 0 0-8 8v32h-32a8 8 0 0 0 0 16h40a8 8 0 0 0 8-8v-40a8 8 0 0 0-8-8ZM40 88a8 8 0 0 0 8-8V48h32a8 8 0 0 0 0-16H40a8 8 0 0 0-8 8v40a8 8 0 0 0 8 8Zm128 96H88a16 16 0 0 1-16-16V88a16 16 0 0 1 16-16h80a16 16 0 0 1 16 16v80a16 16 0 0 1-16 16Zm-80-16h80V88H88Z"
    />
  </svg>