<svg
    xmlns="http://www.w3.org/2000/svg"
    xmlns:xlink="http://www.w3.org/1999/xlink"
    aria-hidden="true"
    role="img"
    width="1em"
    height="1em"
    preserveAspectRatio="xMidYMid meet"
    viewBox="0 0 24 24"
    class="w-14 h-14"
  >
    <rect x="0" y="0" width="24" height="24" fill="none" stroke="none" />
    <g fill="none">
      <path
        d="M17.5 2A.75.75 0 0 0 16 2v1a.75.75 0 0 0 1.5 0V2zm4.03.47a.75.75 0 0 0-1.06 0l-2 2a.75.75 0 0 0 1.06 1.06l2-2a.75.75 0 0 0 0-1.06zM8.03 17.03l1.5-1.5a.75.75 0 1 0-1.06-1.06l-1.5 1.5a.75.75 0 1 0 1.06 1.06zM8.25 6v4.69l-5.22 5.219a2.25 2.25 0 0 0 0 3.182L4.91 20.97a2.25 2.25 0 0 0 3.182 0l5.22-5.22H18a.75.75 0 0 0 .53-.22l1.94-1.939a2.25 2.25 0 0 0 0-3.182L13.59 3.53a2.25 2.25 0 0 0-3.182 0l-1.94 1.94A.75.75 0 0 0 8.25 6zm3.22-1.409a.75.75 0 0 1 1.06 0l6.879 6.879a.75.75 0 0 1 0 1.06L18 13.94L10.06 6l1.41-1.409zm-1.72 3.22l6.44 6.439h-2.88l-3.56-3.56V7.81zM9 12.06L11.94 15l-4.91 4.909a.75.75 0 0 1-1.06 0L4.09 18.03a.75.75 0 0 1 0-1.06L9 12.06zM21 8h1a.75.75 0 0 0 0-1.5h-1A.75.75 0 0 0 21 8z"
        fill="currentColor"
      />
    </g>
  </svg>