<svg
    xmlns="http://www.w3.org/2000/svg"
    xmlns:xlink="http://www.w3.org/1999/xlink"
    aria-hidden="true"
    role="img"
    width="1em"
    height="1em"
    preserveAspectRatio="xMidYMid meet"
    viewBox="0 0 1024 1024"
  >
    <rect x="0" y="0" width="1024" height="1024" fill="none" stroke="none" />
    <path
      fill="currentColor"
      d="M512 64a448 448 0 1 1 0 896a448 448 0 0 1 0-896zm0 192a58.432 58.432 0 0 0-58.24 63.744l23.36 256.384a35.072 35.072 0 0 0 69.76 0l23.296-256.384A58.432 58.432 0 0 0 512 256zm0 512a51.2 51.2 0 1 0 0-102.4a51.2 51.2 0 0 0 0 102.4z"
    />
  </svg>